<svg width="19" height="19" viewBox="0 0 19 19" fill="none" xmlns="http://www.w3.org/2000/svg">
<path d="M15.09 0.923496C14.71 0.543496 14.2 0.333496 13.67 0.333496H2.5C1.39 0.333496 0.5 1.2335 0.5 2.3335V16.3335C0.5 17.4335 1.4 18.3335 2.5 18.3335H16.5C17.6 18.3335 18.5 17.4335 18.5 16.3335V5.1635C18.5 4.6335 18.29 4.1235 17.91 3.7535L15.09 0.923496ZM9.5 16.3335C7.84 16.3335 6.5 14.9935 6.5 13.3335C6.5 11.6735 7.84 10.3335 9.5 10.3335C11.16 10.3335 12.5 11.6735 12.5 13.3335C12.5 14.9935 11.16 16.3335 9.5 16.3335ZM10.5 6.3335H4.5C3.4 6.3335 2.5 5.4335 2.5 4.3335C2.5 3.2335 3.4 2.3335 4.5 2.3335H10.5C11.6 2.3335 12.5 3.2335 12.5 4.3335C12.5 5.4335 11.6 6.3335 10.5 6.3335Z" fill="white"/>
</svg>
