<svg width="24" height="24" viewBox="0 0 24 24" fill="none" xmlns="http://www.w3.org/2000/svg">
<path d="M20.1822 23.0139L12.0596 15.1894L4.23509 23.312C3.3744 24.2055 1.93916 24.2323 1.04568 23.3716C0.152196 22.5109 0.125372 21.0757 0.986069 20.1822L8.81058 12.0596L0.688021 4.23509C-0.205461 3.3744 -0.232285 1.93916 0.628412 1.04568C1.48911 0.152196 2.92435 0.125372 3.81783 0.986069L11.9404 8.81058L19.7649 0.688021C20.6256 -0.205461 22.0608 -0.232285 22.9543 0.628412C23.8478 1.48911 23.8746 2.92435 23.0139 3.81783L15.1894 11.9404L23.312 19.7649C24.2055 20.6256 24.2323 22.0608 23.3716 22.9543C22.5109 23.8478 21.0757 23.8746 20.1822 23.0139Z" fill="#4B4B4B"/>
</svg>
