<svg width="21" height="20" viewBox="0 0 21 20" fill="none" xmlns="http://www.w3.org/2000/svg">
<g clip-path="url(#clip0_2814_2574)">
<path d="M4.83051 10.8637H13.8782L9.92541 14.8165C9.60951 15.1324 9.60951 15.6508 9.92541 15.9667C10.2413 16.2826 10.7516 16.2826 11.0675 15.9667L16.4054 10.6288C16.7213 10.3129 16.7213 9.80263 16.4054 9.48673L11.0756 4.14073C10.7597 3.82483 10.2494 3.82483 9.93351 4.14073C9.61761 4.45663 9.61761 4.96693 9.93351 5.28283L13.8782 9.24373H4.83051C4.38501 9.24373 4.02051 9.60823 4.02051 10.0537C4.02051 10.4992 4.38501 10.8637 4.83051 10.8637Z" fill="white"/>
</g>
<defs>
<clipPath id="clip0_2814_2574">
<rect width="19.44" height="19.44" fill="white" transform="translate(0.780273 0.333496)"/>
</clipPath>
</defs>
</svg>
