<svg width="29" height="29" viewBox="0 0 29 29" fill="none" xmlns="http://www.w3.org/2000/svg">
<path d="M3.04467 29H25.9553C28.2981 29 29.7586 26.1524 28.5872 23.8846L17.1318 1.70087C15.9604 -0.566956 13.0396 -0.566956 11.8682 1.70087L0.412835 23.8846C-0.75856 26.1524 0.70188 29 3.04467 29ZM14.5 17.0641C13.6633 17.0641 12.9787 16.2968 12.9787 15.359V11.9487C12.9787 11.0109 13.6633 10.2436 14.5 10.2436C15.3367 10.2436 16.0213 11.0109 16.0213 11.9487V15.359C16.0213 16.2968 15.3367 17.0641 14.5 17.0641ZM16.0213 23.8846H12.9787V20.4743H16.0213V23.8846Z" fill="#FFCC00"/>
</svg>
