<svg width="17" height="22" viewBox="0 0 17 22" fill="none" xmlns="http://www.w3.org/2000/svg">
<path d="M14.5 7.3335H13.5V5.3335C13.5 2.5735 11.26 0.333496 8.5 0.333496C5.74 0.333496 3.5 2.5735 3.5 5.3335V7.3335H2.5C1.4 7.3335 0.5 8.2335 0.5 9.3335V19.3335C0.5 20.4335 1.4 21.3335 2.5 21.3335H14.5C15.6 21.3335 16.5 20.4335 16.5 19.3335V9.3335C16.5 8.2335 15.6 7.3335 14.5 7.3335ZM8.5 16.3335C7.4 16.3335 6.5 15.4335 6.5 14.3335C6.5 13.2335 7.4 12.3335 8.5 12.3335C9.6 12.3335 10.5 13.2335 10.5 14.3335C10.5 15.4335 9.6 16.3335 8.5 16.3335ZM5.5 7.3335V5.3335C5.5 3.6735 6.84 2.3335 8.5 2.3335C10.16 2.3335 11.5 3.6735 11.5 5.3335V7.3335H5.5Z" fill="#323232"/>
</svg>
