<svg width="28" height="28" viewBox="0 0 28 28" fill="none" xmlns="http://www.w3.org/2000/svg">
<path d="M13.9998 0.666992C6.63984 0.666992 0.666504 6.64033 0.666504 14.0003C0.666504 21.3603 6.63984 27.3337 13.9998 27.3337C21.3598 27.3337 27.3332 21.3603 27.3332 14.0003C27.3332 6.64033 21.3598 0.666992 13.9998 0.666992ZM13.9998 15.3337C13.2665 15.3337 12.6665 14.7337 12.6665 14.0003V8.66699C12.6665 7.93366 13.2665 7.33366 13.9998 7.33366C14.7332 7.33366 15.3332 7.93366 15.3332 8.66699V14.0003C15.3332 14.7337 14.7332 15.3337 13.9998 15.3337ZM15.3332 20.667H12.6665V18.0003H15.3332V20.667Z" fill="#CB014A"/>
</svg>
