<svg width="23" height="12" viewBox="0 0 23 12" fill="none" xmlns="http://www.w3.org/2000/svg">
<path d="M16.75 10H6.17002C4.08002 10 2.22002 8.47 2.02002 6.39C1.79002 4.01 3.66002 2 6.00002 2H18.36C19.67 2 20.86 2.94 20.99 4.24C21.14 5.74 19.97 7 18.5 7H8.00002C7.45002 7 7.00002 6.55 7.00002 6C7.00002 5.45 7.45002 5 8.00002 5H16.75C17.16 5 17.5 4.66 17.5 4.25C17.5 3.84 17.16 3.5 16.75 3.5H8.14002C6.83002 3.5 5.64002 4.44 5.51002 5.74C5.36002 7.24 6.53002 8.5 8.00002 8.5H18.33C20.42 8.5 22.28 6.97 22.48 4.89C22.71 2.5 20.84 0.5 18.5 0.5H6.23002C3.36002 0.5 0.790023 2.6 0.520023 5.46C0.220023 8.75 2.78002 11.5 6.00002 11.5H16.75C17.16 11.5 17.5 11.16 17.5 10.75C17.5 10.34 17.16 10 16.75 10Z" fill="#6500E4"/>
</svg>
