<svg width="25" height="25" viewBox="0 0 25 25" fill="none" xmlns="http://www.w3.org/2000/svg">
<g clip-path="url(#clip0_2796_9167)">
<path d="M12.5 2.3335C6.98 2.3335 2.5 6.8135 2.5 12.3335C2.5 17.8535 6.98 22.3335 12.5 22.3335C18.02 22.3335 22.5 17.8535 22.5 12.3335C22.5 6.8135 18.02 2.3335 12.5 2.3335ZM16.5 13.3335H13.5V16.3335C13.5 16.8835 13.05 17.3335 12.5 17.3335C11.95 17.3335 11.5 16.8835 11.5 16.3335V13.3335H8.5C7.95 13.3335 7.5 12.8835 7.5 12.3335C7.5 11.7835 7.95 11.3335 8.5 11.3335H11.5V8.3335C11.5 7.7835 11.95 7.3335 12.5 7.3335C13.05 7.3335 13.5 7.7835 13.5 8.3335V11.3335H16.5C17.05 11.3335 17.5 11.7835 17.5 12.3335C17.5 12.8835 17.05 13.3335 16.5 13.3335Z" fill="#6500E4"/>
</g>
<defs>
<clipPath id="clip0_2796_9167">
<rect width="24" height="24" fill="white" transform="translate(0.5 0.333496)"/>
</clipPath>
</defs>
</svg>
