<svg width="21" height="21" viewBox="0 0 21 21" fill="none" xmlns="http://www.w3.org/2000/svg">
<g clip-path="url(#clip0_2796_9159)">
<path d="M6.67492 12.8335L7.99992 12.8335L7.99992 17.0002C7.99992 17.4585 8.37492 17.8335 8.83325 17.8335H12.1666C12.6249 17.8335 12.9999 17.4585 12.9999 17.0002L12.9999 12.8335H14.3249C15.0666 12.8335 15.4416 11.9335 14.9166 11.4085L11.0916 7.5835C10.7666 7.2585 10.2416 7.2585 9.91659 7.5835L6.09159 11.4085C5.56658 11.9335 5.93325 12.8335 6.67492 12.8335ZM16.3333 4.50016C16.3333 4.04183 15.9583 3.66683 15.4999 3.66683L5.49992 3.66683C5.04159 3.66683 4.66659 4.04183 4.66659 4.50016C4.66659 4.9585 5.04159 5.3335 5.49992 5.3335L15.4999 5.3335C15.9583 5.3335 16.3333 4.9585 16.3333 4.50016Z" fill="#6500E4"/>
</g>
<defs>
<clipPath id="clip0_2796_9159">
<rect width="20" height="20" fill="white" transform="matrix(-1 0 0 -1 20.5 20.3335)"/>
</clipPath>
</defs>
</svg>
