<svg width="286" height="28" viewBox="0 0 286 28" fill="none" xmlns="http://www.w3.org/2000/svg">
<path d="M18.475 10.0118L10.1276 1.87938C5.03937 -3.07782 -3.07349 3.78479 1.42033 9.26069C1.58342 9.45898 1.75864 9.6507 1.94735 9.83455L9.92003 17.6019C10.935 18.6144 11.5617 19.9971 11.5617 21.523C11.5617 23.0489 10.8932 24.5499 9.80681 25.5715L16.5691 19.0044C16.592 18.9821 16.6068 18.9571 16.6284 18.9348L18.4763 17.1344C20.4955 15.1673 20.4955 11.9789 18.4763 10.0131L18.475 10.0118Z" fill="url(#paint0_linear_651_36915)"/>
<path d="M9.8068 25.5716C10.8932 24.5499 11.5617 23.1107 11.5617 21.5231C11.5617 19.9355 10.935 18.6144 9.92002 17.602L5.78205 13.5706L1.69125 17.556C-0.563749 19.7529 -0.563749 23.3156 1.69125 25.5138C3.92872 27.6937 7.54372 27.7121 9.8068 25.5729V25.5716Z" fill="url(#paint1_linear_651_36915)"/>
<line x1="29.0859" y1="-2.18557e-08" x2="29.0859" y2="27" stroke="#FF7E00"/>
<path d="M40.5799 18.0815V8.21154H47.3419V9.90554H42.6519V12.2155H47.0339V13.9235H42.6519V16.3875H47.3419V18.0815H40.5799ZM49.0565 18.0815V8.21154H52.9205C54.6005 8.21154 55.9025 8.64088 56.8265 9.49954C57.7505 10.3489 58.2125 11.5622 58.2125 13.1395C58.2125 14.7169 57.7505 15.9349 56.8265 16.7935C55.9025 17.6522 54.6005 18.0815 52.9205 18.0815H49.0565ZM51.2265 16.3035H52.7945C54.8945 16.3035 55.9445 15.2489 55.9445 13.1395C55.9445 11.0395 54.8945 9.98954 52.7945 9.98954H51.2265V16.3035ZM64.1263 18.2355C62.7263 18.2355 61.6576 17.8762 60.9203 17.1575C60.1923 16.4389 59.8283 15.3702 59.8283 13.9515V8.21154H61.9983V13.9655C61.9983 14.7682 62.1803 15.3749 62.5443 15.7855C62.9083 16.1869 63.4356 16.3875 64.1263 16.3875C65.5356 16.3875 66.2403 15.5802 66.2403 13.9655V8.21154H68.3823V13.9515C68.3823 15.3702 68.023 16.4389 67.3043 17.1575C66.5856 17.8762 65.5263 18.2355 64.1263 18.2355ZM75.0906 18.2355C74.0266 18.2355 73.1166 18.0255 72.3606 17.6055C71.6046 17.1855 71.0213 16.5975 70.6106 15.8415C70.2093 15.0762 70.0086 14.1755 70.0086 13.1395C70.0086 12.1129 70.2093 11.2215 70.6106 10.4655C71.0213 9.70021 71.6046 9.10754 72.3606 8.68754C73.1166 8.26754 74.0266 8.05754 75.0906 8.05754C75.7439 8.05754 76.3693 8.16021 76.9666 8.36554C77.5639 8.57088 78.0539 8.85088 78.4366 9.20554L77.7646 10.9275C77.3446 10.6009 76.9199 10.3629 76.4906 10.2135C76.0706 10.0549 75.6273 9.97554 75.1606 9.97554C74.2179 9.97554 73.5039 10.2509 73.0186 10.8015C72.5426 11.3429 72.3046 12.1222 72.3046 13.1395C72.3046 14.1569 72.5426 14.9409 73.0186 15.4915C73.5039 16.0422 74.2179 16.3175 75.1606 16.3175C75.6273 16.3175 76.0706 16.2429 76.4906 16.0935C76.9199 15.9349 77.3446 15.6922 77.7646 15.3655L78.4366 17.0875C78.0539 17.4329 77.5639 17.7129 76.9666 17.9275C76.3693 18.1329 75.7439 18.2355 75.0906 18.2355ZM78.5475 18.0815L83.0835 8.21154H84.8335L89.3695 18.0815H87.1855L86.2615 15.9395H81.6555L80.7455 18.0815H78.5475ZM83.9375 10.5215L82.3835 14.2455H85.5475L83.9655 10.5215H83.9375ZM94.7781 18.2355C93.7141 18.2355 92.8041 18.0255 92.0481 17.6055C91.2921 17.1855 90.7088 16.5975 90.2981 15.8415C89.8968 15.0762 89.6961 14.1755 89.6961 13.1395C89.6961 12.1129 89.8968 11.2215 90.2981 10.4655C90.7088 9.70021 91.2921 9.10754 92.0481 8.68754C92.8041 8.26754 93.7141 8.05754 94.7781 8.05754C95.4314 8.05754 96.0568 8.16021 96.6541 8.36554C97.2514 8.57088 97.7414 8.85088 98.1241 9.20554L97.4521 10.9275C97.0321 10.6009 96.6074 10.3629 96.1781 10.2135C95.7581 10.0549 95.3148 9.97554 94.8481 9.97554C93.9054 9.97554 93.1914 10.2509 92.7061 10.8015C92.2301 11.3429 91.9921 12.1222 91.9921 13.1395C91.9921 14.1569 92.2301 14.9409 92.7061 15.4915C93.1914 16.0422 93.9054 16.3175 94.8481 16.3175C95.3148 16.3175 95.7581 16.2429 96.1781 16.0935C96.6074 15.9349 97.0321 15.6922 97.4521 15.3655L98.1241 17.0875C97.7414 17.4329 97.2514 17.7129 96.6541 17.9275C96.0568 18.1329 95.4314 18.2355 94.7781 18.2355ZM99.5467 18.0815V8.21154H101.717V18.0815H99.5467ZM108.267 18.2355C107.297 18.2355 106.443 18.0255 105.705 17.6055C104.977 17.1762 104.408 16.5835 103.997 15.8275C103.596 15.0622 103.395 14.1662 103.395 13.1395C103.395 12.1129 103.596 11.2215 103.997 10.4655C104.408 9.70021 104.977 9.10754 105.705 8.68754C106.433 8.26754 107.287 8.05754 108.267 8.05754C109.247 8.05754 110.101 8.26754 110.829 8.68754C111.567 9.10754 112.136 9.70021 112.537 10.4655C112.948 11.2215 113.153 12.1082 113.153 13.1255C113.153 14.1522 112.948 15.0482 112.537 15.8135C112.136 16.5789 111.567 17.1762 110.829 17.6055C110.101 18.0255 109.247 18.2355 108.267 18.2355ZM108.267 16.3875C109.089 16.3875 109.728 16.1029 110.185 15.5335C110.652 14.9549 110.885 14.1569 110.885 13.1395C110.885 12.1129 110.657 11.3195 110.199 10.7595C109.742 10.1902 109.098 9.90554 108.267 9.90554C107.455 9.90554 106.816 10.1902 106.349 10.7595C105.892 11.3195 105.663 12.1129 105.663 13.1395C105.663 14.1569 105.892 14.9549 106.349 15.5335C106.816 16.1029 107.455 16.3875 108.267 16.3875ZM107.525 7.37154L109.177 4.92154H111.319L108.995 7.37154H107.525ZM114.832 18.0815V8.21154H116.442L121.37 14.4975V8.21154H123.386V18.0815H121.79L116.848 11.7815V18.0815H114.832Z" fill="#1C002F"/>
<defs>
<linearGradient id="paint0_linear_651_36915" x1="14.3303" y1="17.9985" x2="2.26835" y2="2.59761" gradientUnits="userSpaceOnUse">
<stop stop-color="#00CAF0"/>
<stop offset="0.14" stop-color="#02C5EF"/>
<stop offset="0.28" stop-color="#08B9EF"/>
<stop offset="0.42" stop-color="#12A5ED"/>
<stop offset="0.56" stop-color="#2089EC"/>
<stop offset="0.7" stop-color="#3265EA"/>
<stop offset="0.84" stop-color="#4838E7"/>
<stop offset="0.98" stop-color="#6205E4"/>
<stop offset="0.99" stop-color="#6500E4"/>
</linearGradient>
<linearGradient id="paint1_linear_651_36915" x1="1.20332" y1="26.1376" x2="9.03113" y2="17.843" gradientUnits="userSpaceOnUse">
<stop offset="0.44" stop-color="#FFCC00"/>
<stop offset="0.55" stop-color="#FFC500"/>
<stop offset="0.71" stop-color="#FFB200"/>
<stop offset="0.89" stop-color="#FF9300"/>
<stop offset="0.99" stop-color="#FF7E00"/>
</linearGradient>
</defs>
</svg>
